<svg width="79" height="19" viewBox="0 0 79 19" fill="none" xmlns="http://www.w3.org/2000/svg">
<g clip-path="url(#clip0_54_17)">
<path d="M0 0H2.78475L5.15018 10.6703C5.29808 11.3186 5.42509 11.8797 5.5321 12.3532C5.63867 12.8268 5.73306 13.2466 5.81527 13.6123C5.89748 13.978 5.96316 14.3024 6.01232 14.5845C6.06147 14.8675 6.10236 15.1416 6.13542 15.407H6.75135C6.78397 15.1412 6.82095 14.871 6.86227 14.5968C6.90316 14.3226 6.96101 14.0027 7.03496 13.637C7.1089 13.2713 7.19895 12.8479 7.30595 12.3656C7.41252 11.8837 7.54824 11.3102 7.71266 10.6453L10.2508 0H13.8729L16.411 10.6453C16.575 11.3102 16.7107 11.8837 16.8177 12.3656C16.9243 12.8479 17.0147 13.2717 17.0887 13.637C17.1626 14.0027 17.2201 14.3222 17.2614 14.5968C17.3023 14.871 17.3392 15.1412 17.3723 15.407H17.9882C18.0209 15.1412 18.0622 14.867 18.1113 14.5845C18.1605 14.3019 18.2262 13.978 18.3084 13.6123C18.3906 13.2466 18.4845 12.8268 18.592 12.3532C18.6986 11.8797 18.826 11.3186 18.9739 10.6703L21.3398 0H24.1241L20.1323 17.7007H15.4505L13.4792 9.34921C13.4135 9.01694 13.3231 8.53505 13.2082 7.90352C13.0929 7.272 12.9781 6.5991 12.8633 5.88396C12.748 5.1697 12.6414 4.47172 12.5431 3.78959C12.4444 3.10833 12.3704 2.56835 12.3213 2.16919H11.8037C11.7545 2.56835 11.6806 3.10833 11.5818 3.78959C11.4835 4.47128 11.3761 5.1697 11.2617 5.88396C11.1464 6.59866 11.0359 7.272 10.9289 7.90352C10.8219 8.53505 10.7275 9.01694 10.6457 9.34921L8.6744 17.7007H3.99226L0 0Z" fill="white"/>
<path d="M33.4523 0V13.3377C33.4523 13.8201 33.4235 14.2227 33.3661 14.5471C33.3083 14.871 33.2308 15.15 33.1321 15.3824L33.6001 15.7564C33.8298 15.5905 34.13 15.4365 34.4997 15.2952C34.8694 15.154 35.3414 15.0831 35.9164 15.0831H38.8004L39.7917 17.7007H30.7419V0H33.4523Z" fill="white"/>
<path d="M40.2106 14.2852C40.2106 13.7034 40.3128 13.1846 40.5185 12.7269C40.7239 12.2701 41.0153 11.8793 41.3933 11.5549C41.7709 11.231 42.2228 10.9859 42.7487 10.8195C43.2742 10.6536 43.8492 10.5705 44.4734 10.5705C45.2946 10.5705 45.9558 10.7161 46.4569 11.0066C46.958 11.2975 47.3973 11.7508 47.7753 12.3651L48.1451 12.34V10.9687C48.1451 10.2875 48.0668 9.73076 47.9111 9.2986C47.7549 8.86643 47.5413 8.53417 47.2703 8.30136C46.9993 8.069 46.6748 7.911 46.2968 7.82783C45.9188 7.74509 45.5082 7.70328 45.065 7.70328C44.6217 7.70328 44.2107 7.76181 43.8823 7.878C43.5534 7.99418 43.2785 8.13985 43.0567 8.31412C42.8348 8.48884 42.6582 8.66311 42.5269 8.83783C42.3951 9.01254 42.305 9.16613 42.2559 9.29904L40.2845 7.77854C40.465 7.37938 40.7282 7.02643 41.0731 6.71881C41.4181 6.41163 41.8122 6.15418 42.2559 5.94602C42.6995 5.73873 43.1798 5.5847 43.6974 5.4848C44.215 5.38534 44.7361 5.33517 45.262 5.33517C46.9376 5.33517 48.2682 5.78846 49.2538 6.69372C50.2395 7.59986 50.7324 8.90032 50.7324 10.5955V17.7007H48.3421V16.0306L47.8001 15.9809C47.7345 16.23 47.6109 16.4755 47.4304 16.7163C47.2495 16.9574 47.0115 17.1735 46.7157 17.3645C46.4199 17.556 46.0707 17.7095 45.6683 17.8257C45.2655 17.9415 44.8096 18 44.3007 18C43.7257 18 43.1876 17.9168 42.6869 17.7509C42.1854 17.585 41.7504 17.3394 41.3807 17.0155C41.0109 16.6916 40.7234 16.3013 40.5181 15.8436C40.3124 15.3868 40.2101 14.8675 40.2101 14.2857L40.2106 14.2852ZM42.7735 14.2852C42.7735 14.7676 42.9584 15.154 43.3281 15.4444C43.6978 15.7353 44.2276 15.8805 44.9175 15.8805C45.2459 15.8805 45.5787 15.8392 45.9154 15.756C46.252 15.6733 46.5683 15.5606 46.8641 15.4193C47.1598 15.2781 47.4221 15.1077 47.6527 14.9084C47.8824 14.709 48.055 14.5013 48.1699 14.2852C48.0546 14.0524 47.8824 13.8407 47.6527 13.6493C47.4221 13.4587 47.1598 13.2924 46.8641 13.1507C46.5683 13.0099 46.252 12.8976 45.9154 12.814C45.5783 12.7313 45.2459 12.6895 44.9175 12.6895C44.2276 12.6895 43.6978 12.8351 43.3281 13.126C42.9584 13.4169 42.7735 13.8033 42.7735 14.2852Z" fill="white"/>
<path d="M52.3835 5.63442H54.9708L54.8477 7.85334H55.4636C55.5454 7.5708 55.6768 7.27991 55.8577 6.98065C56.0382 6.68139 56.2805 6.41162 56.5846 6.17045C56.8882 5.92972 57.2579 5.73036 57.6933 5.57237C58.1283 5.41438 58.6338 5.3356 59.2088 5.3356C60.5394 5.3356 61.5908 5.78053 62.3629 6.66951C63.135 7.55892 63.5212 8.80965 63.5212 10.4217V17.7012H60.934V11.2442C60.934 10.0142 60.6999 9.10451 60.2315 8.51435C59.7634 7.92463 59.0196 7.62934 58.0013 7.62934C56.983 7.62934 56.1613 7.99065 55.685 8.71371C55.2083 9.43677 54.9704 10.3632 54.9704 11.4933V17.7012H52.3831V5.63442H52.3835Z" fill="white"/>
<path d="M64.5808 11.6676C64.5808 10.6703 64.7326 9.77741 65.0367 8.98746C65.3403 8.19838 65.7514 7.53341 66.2686 6.99298C66.7858 6.453 67.3895 6.04151 68.0798 5.75898C68.7697 5.47644 69.5005 5.33517 70.273 5.33517C71.2421 5.33517 72.0512 5.57634 72.7002 6.05824C73.3492 6.54057 73.7968 7.13029 74.043 7.82827H74.6589L74.4127 5.55962V0H77.0004V17.7007H74.4127L74.6589 15.5069H74.043C73.7968 16.2049 73.3488 16.795 72.7002 17.2769C72.0512 17.7588 71.2421 17.9996 70.273 17.9996C69.5009 17.9996 68.7697 17.8583 68.0798 17.5758C67.3899 17.2932 66.7862 16.8817 66.2686 16.3417C65.7509 15.8018 65.3403 15.1372 65.0367 14.3473C64.7326 13.5582 64.5808 12.6644 64.5808 11.6671V11.6676ZM67.1681 11.6676C67.1681 12.2327 67.2542 12.7564 67.4269 13.2383C67.5996 13.7206 67.8458 14.136 68.166 14.4846C68.4861 14.8336 68.868 15.1042 69.3117 15.2952C69.7554 15.4867 70.2482 15.5817 70.7902 15.5817C71.3322 15.5817 71.8289 15.4862 72.2809 15.2952C72.7324 15.1042 73.1187 14.834 73.4392 14.4846C73.7594 14.1356 74.006 13.7202 74.1783 13.2383C74.351 12.7564 74.4371 12.2327 74.4371 11.6676C74.4371 11.1025 74.351 10.5793 74.1783 10.0969C74.0056 9.61502 73.7594 9.19914 73.4392 8.85015C73.1191 8.50116 72.7328 8.23139 72.2809 8.03995C71.8289 7.84939 71.3322 7.75345 70.7902 7.75345C70.2482 7.75345 69.7554 7.84939 69.3117 8.03995C68.868 8.23139 68.4861 8.50116 68.166 8.85015C67.8458 9.19914 67.5992 9.61502 67.4269 10.0969C67.2542 10.5793 67.1681 11.1025 67.1681 11.6676Z" fill="white"/>
<path d="M28.8454 14.8688L28.731 14.2122L26.8288 14.5515L28.1015 13.0173L27.597 12.5887L26.3551 14.0859V12.0826H25.6965V14.037L24.4238 12.5024L23.9192 12.9306L25.1611 14.4278L23.211 14.0801L23.0966 14.7363L24.9988 15.0756L23.2841 16.0773L23.6138 16.6542L25.2863 15.6772L24.6091 17.5595L25.2281 17.7874L25.8888 15.9509L26.5661 17.8336L27.185 17.6057L26.5243 15.7692L28.239 16.7708L28.5683 16.1934L26.8958 15.2164L28.8454 14.8688Z" fill="#36F398"/>
</g>
<defs>
<clipPath id="clip0_54_17">
<rect width="77" height="18" fill="white"/>
</clipPath>
</defs>
</svg>
